<?xml version="1.0" encoding="UTF-8" standalone="no"?>
<!-- Created with Inkscape (http://www.inkscape.org/) -->

<svg
   xmlns:dc="http://purl.org/dc/elements/1.1/"
   xmlns:cc="http://creativecommons.org/ns#"
   xmlns:rdf="http://www.w3.org/1999/02/22-rdf-syntax-ns#"
   xmlns:svg="http://www.w3.org/2000/svg"
   xmlns="http://www.w3.org/2000/svg"
   xmlns:xlink="http://www.w3.org/1999/xlink"
   xmlns:sodipodi="http://sodipodi.sourceforge.net/DTD/sodipodi-0.dtd"
   xmlns:inkscape="http://www.inkscape.org/namespaces/inkscape"
   width="292.28043mm"
   height="47.428871mm"
   viewBox="0 0 292.28043 47.428871"
   version="1.1"
   id="svg1354"
   inkscape:version="0.92.4 (5da689c313, 2019-01-14)"
   sodipodi:docname="logo.svg"
   inkscape:export-filename="E:\PhD\Research\Student-Thesis\4_type_inference_benchmark(Sam)\git_sources\master-thesis-of-samkutty\docs\logo.png"
   inkscape:export-xdpi="300"
   inkscape:export-ydpi="300">
  <metadata
     id="metadata219">
    <rdf:RDF>
      <cc:Work
         rdf:about="">
        <dc:format>image/svg+xml</dc:format>
        <dc:type
           rdf:resource="http://purl.org/dc/dcmitype/StillImage" />
      </cc:Work>
    </rdf:RDF>
  </metadata>
  <sodipodi:namedview
     id="namedview1356"
     pagecolor="#ffffff"
     bordercolor="#000000"
     borderopacity="0.25"
     inkscape:showpageshadow="2"
     inkscape:pageopacity="0.0"
     inkscape:pagecheckerboard="0"
     inkscape:deskcolor="#d1d1d1"
     inkscape:document-units="mm"
     showgrid="false"
     inkscape:zoom="1.7438505"
     inkscape:cx="667.83299"
     inkscape:cy="205.49403"
     inkscape:window-width="2560"
     inkscape:window-height="1351"
     inkscape:window-x="-9"
     inkscape:window-y="-9"
     inkscape:window-maximized="1"
     inkscape:current-layer="g762"
     showguides="true"
     inkscape:guide-bbox="true">
    <sodipodi:guide
       position="249.03366,24.069572"
       orientation="0,1"
       id="guide262"
       inkscape:locked="false" />
  </sodipodi:namedview>
  <defs
     id="defs1351">
    <linearGradient
       inkscape:collect="always"
       xlink:href="#linearGradient47727"
       id="linearGradient36813"
       x1="52.392612"
       y1="61.556606"
       x2="52.392612"
       y2="3.3817472"
       gradientUnits="userSpaceOnUse" />
    <linearGradient
       inkscape:collect="always"
       id="linearGradient47727">
      <stop
         style="stop-color:#f1a980;stop-opacity:1"
         offset="0"
         id="stop47719" />
      <stop
         style="stop-color:#fd8275;stop-opacity:1"
         offset="0.15421276"
         id="stop47721" />
      <stop
         style="stop-color:#fcb5a0;stop-opacity:1"
         offset="0.49899602"
         id="stop47729" />
      <stop
         style="stop-color:#fa6c76;stop-opacity:1;"
         offset="0.74463207"
         id="stop47723" />
      <stop
         style="stop-color:#8a4568;stop-opacity:1"
         offset="1"
         id="stop47725" />
    </linearGradient>
    <clipPath
       clipPathUnits="userSpaceOnUse"
       id="clipPath470">
      <g
         id="g474">
        <rect
           width="257"
           height="62"
           fill="#ffffff"
           id="rect472"
           x="0"
           y="0" />
      </g>
    </clipPath>
    <clipPath
       clipPathUnits="userSpaceOnUse"
       id="clipPath446-9-7">
      <g
         id="g450-1-4">
        <rect
           width="257"
           height="62"
           fill="#ffffff"
           id="rect448-2-5"
           x="0"
           y="0" />
      </g>
    </clipPath>
    <linearGradient
       inkscape:collect="always"
       xlink:href="#linearGradient687"
       id="linearGradient611"
       x1="218.03287"
       y1="21.459364"
       x2="223.85509"
       y2="27.068314"
       gradientUnits="userSpaceOnUse" />
    <linearGradient
       inkscape:collect="always"
       id="linearGradient687">
      <stop
         style="stop-color:#f1a980;stop-opacity:1"
         offset="0"
         id="stop677" />
      <stop
         style="stop-color:#fd8275;stop-opacity:1"
         offset="0.27174118"
         id="stop679" />
      <stop
         style="stop-color:#fcb5a0;stop-opacity:1"
         offset="0.57561821"
         id="stop681" />
      <stop
         style="stop-color:#fa6c76;stop-opacity:1;"
         offset="0.71684164"
         id="stop683" />
      <stop
         style="stop-color:#8a4568;stop-opacity:1"
         offset="1"
         id="stop685" />
    </linearGradient>
    <clipPath
       clipPathUnits="userSpaceOnUse"
       id="clipPath446-9-7-3">
      <g
         id="g450-1-4-6">
        <rect
           width="257"
           height="62"
           fill="#ffffff"
           id="rect448-2-5-7"
           x="0"
           y="0" />
      </g>
    </clipPath>
    <clipPath
       clipPathUnits="userSpaceOnUse"
       id="clipPath428-7-7">
      <g
         id="g432-5-4">
        <rect
           width="257"
           height="62"
           fill="#ffffff"
           id="rect430-3-4"
           x="0"
           y="0" />
      </g>
    </clipPath>
    <clipPath
       clipPathUnits="userSpaceOnUse"
       id="clipPath428-7-1-0">
      <g
         id="g432-5-2-7">
        <rect
           width="257"
           height="62"
           fill="#ffffff"
           id="rect430-3-7-8"
           x="0"
           y="0" />
      </g>
    </clipPath>
    <clipPath
       clipPathUnits="userSpaceOnUse"
       id="clipPath428-7-1-0-6">
      <g
         id="g432-5-2-7-3">
        <rect
           style="fill:#ffffff"
           width="257"
           height="62"
           id="rect430-3-7-8-5"
           x="0"
           y="0" />
      </g>
    </clipPath>
  </defs>
  <g
     inkscape:label="Layer 1"
     inkscape:groupmode="layer"
     id="layer1"
     transform="translate(-2.6234991,-7.9057172)">
    <g
       id="g70826"
       transform="matrix(0.35490898,0,0,0.35490898,-141.17066,-287.2772)"
       inkscape:export-filename="g70826.jpg"
       inkscape:export-xdpi="174.4373"
       inkscape:export-ydpi="174.4373">
      <g
         id="g543"
         transform="translate(-18.931624,3.5146389)" />
      <g
         id="g971">
        <path
           id="rect27"
           clip-path="url(#clipPath470)"
           style="fill:url(#linearGradient36813)"
           d="M 8.4196306e-5,7.9997305 V 55.999739 H 110.99978 V 7.9997305 Z M 3.2020101,16.87828 H 25.465926 v 3.443805 H 16.123262 V 47.121891 H 12.544674 V 20.322085 H 3.2020101 Z m 23.3853529,0 h 3.824608 l 7.298193,12.437405 7.245082,-12.437405 h 3.825218 L 39.472597,32.718802 V 47.121891 H 35.89462 V 32.718802 Z m 26.96333,0 h 8.038085 c 2.94969,0 5.17678,0.769907 6.681007,2.309433 1.515974,1.526021 2.274008,3.767342 2.274008,6.724856 0,2.98452 -0.758034,5.240221 -2.274008,6.766246 -1.504227,1.526021 -3.731317,2.289089 -6.681007,2.289089 h -4.477202 v 12.153987 h -3.560883 z m 23.067907,0 h 16.640248 v 3.443805 H 80.179484 v 8.953613 h 12.532991 v 3.443104 H 80.179484 v 10.959284 h 13.396809 v 3.443805 H 76.6186 Z m -19.507024,3.362428 v 11.364066 h 4.477202 c 1.656999,0 2.938038,-0.492986 3.842922,-1.478823 0.904886,-0.985839 1.357079,-2.39026 1.357079,-4.213382 0,-1.80962 -0.452193,-3.207199 -1.357079,-4.193038 -0.904884,-0.985837 -2.185923,-1.478823 -3.842922,-1.478823 z M 98.64138,43.672474 h 8.92571 v 3.450119 h -8.92571 z"
           transform="matrix(3.1993684,0,0,2.7840978,405.15758,809.44239)" />
        <g
           id="g762"
           transform="translate(-14.93162,3.5146389)">
          <g
             aria-label="       EVA  PY"
             id="text683-8"
             style="font-size:115.502px;letter-spacing:4.15169px;fill:#4d4d4d;stroke-width:9.62523">
            <path
               d="m 792.57649,853.01655 h 53.2392 v 9.58757 h -41.84691 v 24.92767 h 40.09859 v 9.58757 h -40.09859 v 30.51103 h 42.86207 v 9.58757 h -54.25436 z"
               style="-inkscape-font-specification:sans-serif"
               id="path1153" />
            <path
               d="m 891.41952,937.21796 -32.14656,-84.20141 h 11.89987 l 26.676,70.89161 26.73239,-70.89161 h 11.84347 l -32.09015,84.20141 z"
               style="-inkscape-font-specification:sans-serif"
               id="path1155" />
            <path
               d="m 973.62529,864.23964 -15.45291,41.90332 h 30.96221 z m -6.42931,-11.22309 h 12.91501 l 32.09011,84.20141 h -11.8434 l -7.67007,-21.60023 h -37.95549 l -7.67006,21.60023 h -12.01266 z"
               style="-inkscape-font-specification:sans-serif"
               id="path1157" />
            <path
               d="m 1121.7726,862.37853 v 31.63897 h 14.325 q 7.952,0 12.2946,-4.11701 4.3426,-4.11702 4.3426,-11.73067 0,-7.55726 -4.3426,-11.67428 -4.3426,-4.11701 -12.2946,-4.11701 z m -11.3922,-9.36198 h 25.7172 q 14.1558,0 21.3746,6.42931 7.2753,6.37291 7.2753,18.72396 0,12.46383 -7.2753,18.83675 -7.2188,6.37291 -21.3746,6.37291 h -14.325 v 33.83848 h -11.3922 z"
               style="-inkscape-font-specification:sans-serif"
               id="path1159" />
            <path
               d="m 1172.6214,853.01655 h 12.2383 l 23.3485,34.62804 23.1794,-34.62804 h 12.2382 l -29.7778,44.10281 v 40.0986 h -11.4487 v -40.0986 z"
               style="-inkscape-font-specification:sans-serif"
               id="path1161" />
          </g>
          <path
             d="m 1047.3707,937.24436 c -3.6886,0 -6.9161,-0.72995 -9.6825,-2.19009 -2.7665,-1.46019 -4.9191,-3.535 -6.455,-6.22451 -1.5389,-2.6895 -2.3054,-5.84038 -2.3054,-9.45202 v -56.82735 h -21.3247 v -9.45203 h 31.6988 v 66.27938 c 0,2.61282 0.7291,4.68767 2.1901,6.2245 1.4582,1.46015 3.4178,2.1901 5.8787,2.1901 h 20.172 v 9.45202 z"
             style="fill:#4d4d4d;fill-opacity:1;stroke-width:2.8817"
             id="path490-2-8" />
          <path
             d="m 221.6,27.32 c -0.811,0 -1.461,-0.2347 -1.952,-0.704 -0.469,-0.4693 -0.704,-1.0987 -0.704,-1.888 0,-0.832 0.235,-1.4933 0.704,-1.984 0.491,-0.4907 1.141,-0.736 1.952,-0.736 0.811,0 1.451,0.2453 1.92,0.736 0.491,0.4907 0.736,1.152 0.736,1.984 0,0.7893 -0.245,1.4187 -0.736,1.888 -0.469,0.4693 -1.109,0.704 -1.92,0.704 z"
             fill="#1c3165"
             id="path35-7-2"
             clip-path="url(#clipPath446-9-7)"
             transform="matrix(2.2419835,0,0,2.3438866,638.735,820.19325)"
             style="fill:#4d4d4d;fill-opacity:1" />
          <path
             d="m 221.6,27.32 c -0.811,0 -1.461,-0.2347 -1.952,-0.704 -0.469,-0.4693 -0.704,-1.0987 -0.704,-1.888 0,-0.832 0.235,-1.4933 0.704,-1.984 0.491,-0.4907 1.141,-0.736 1.952,-0.736 0.811,0 1.451,0.2453 1.92,0.736 0.491,0.4907 0.736,1.152 0.736,1.984 0,0.7893 -0.245,1.4187 -0.736,1.888 -0.469,0.4693 -1.109,0.704 -1.92,0.704 z"
             fill="#1c3165"
             id="path35-7-2-5"
             clip-path="url(#clipPath446-9-7-3)"
             transform="matrix(0.96983442,0,0,1.0139155,920.56833,853.04413)"
             style="fill:url(#linearGradient611);fill-opacity:1" />
          <path
             id="rect41-5-0-6"
             clip-path="url(#clipPath428-7-1-0)"
             style="fill:#4d4d4d"
             transform="matrix(3.3298106,0,0,2.8788297,448.91991,916.84388)"
             d="m 187,3.8 h 4 v 3.2799999 h -4 z" />
          <path
             inkscape:connector-curvature="0"
             d="m 1080.0736,903.46953 c -3.6886,0 -6.9161,-0.72996 -9.6825,-2.19009 -2.7665,-1.46019 -4.9191,-3.53501 -6.455,-6.22452 -1.5389,-2.6895 -2.3054,-5.84037 -2.3054,-9.45202 v -47.95696 h -21.3247 v -9.45203 h 31.6988 v 57.40899 c 0,2.61282 0.7291,4.68768 2.1901,6.2245 1.4582,1.46015 3.4178,2.1901 5.8787,2.1901 h 20.172 v 9.45203 z"
             style="fill:#4d4d4d;fill-opacity:1;stroke-width:2.88170004"
             id="path490-2-8-1"
             sodipodi:nodetypes="sccsccccscsccs" />
          <path
             inkscape:connector-curvature="0"
             id="rect41-5-0-6-5"
             clip-path="url(#clipPath428-7-1-0-6)"
             style="fill:#4d4d4d"
             transform="matrix(3.3298106,0,0,2.8788297,400.45431,817.26092)"
             d="m 187,3.8 h 4 v 3.2799999 h -4 z" />
        </g>
        <g
           id="g521"
           transform="translate(2)">
          <g
             aria-label="TYPE"
             id="text683-2-2"
             style="font-size:115.502px;letter-spacing:4.15169px;fill:#ffffff;stroke-width:9.62523" />
        </g>
      </g>
    </g>
  </g>
</svg>
